<svg id="Layer_1" data-name="Layer 1" xmlns="http://www.w3.org/2000/svg" viewBox="0 0 1415 262"><defs><style>@import url('https://fonts.googleapis.com/css2?family=Red+Hat+Display:wght@900&amp;display=swap');.cls-1{fill:#fff;}</style></defs><title>Proventeq Logo 2018 White</title><path class="cls-1" d="M333.73,73.07h19.19V85.55C359,77,369,70.42,383.18,70.42c30,0,42.59,25.42,42.59,46.17,0,24.34-17.31,44.78-42.43,44.78-16.69,0-25.74-8.58-29.17-14v41.34H333.73Zm71.61,42.74c0-12.32-8.9-26.36-26.21-26.36a25.39,25.39,0,0,0-18.57,7.8,27.09,27.09,0,0,0-7.33,18.88,25.83,25.83,0,0,0,26,26.2c15.6,0,26.06-12.32,26.06-26.36Z"/><path class="cls-1" d="M440.07,73.07h19.35V84.3c3.74-7.64,10.76-13.73,23.71-13.88V91h-.94c-14.35,0-21.68,6.71-21.68,21.53v46.17H440.07Z"/><path class="cls-1" d="M487.29,115.66c0-21.84,16.07-45.09,45.87-45.09S579,93.82,579,115.81c0,22.16-16.06,45.4-45.86,45.4s-45.87-23.24-45.87-45.4Zm20.44.31c0,15,11.39,26.05,25.43,26.05s25.27-11.07,25.27-26.21S547.2,89.6,533.16,89.6s-25.43,11.08-25.43,26.21Z"/><path class="cls-1" d="M632.31,158.71h-20L580.52,73.07h21.21l20.6,59.9,20.59-59.9h21.21Z"/><path class="cls-1" d="M685.66,122.68c.94,13.73,13.1,21.37,24.8,21.21,10,0,16.7-4.52,20.6-11.54h21.06a48.35,48.35,0,0,1-17.32,21.53,42.46,42.46,0,0,1-24.49,7.49,45.06,45.06,0,0,1-45.24-45.24c0-24.34,19-45.71,44.93-45.71,12.79,0,24,4.83,32,13.1,10.45,10.76,14.35,24.18,12.63,39.16Zm48.83-15.6c-.78-8.12-9.36-19.5-24.34-19.35-15.13,0-23.4,10.92-24.18,19.35Z"/><path class="cls-1" d="M768.12,73.07h19.19c0,3.74,0,7.33-.16,11.39,3.75-6.71,11.39-14.2,26.68-14,27.92.15,33.23,21.52,33.23,36.66v51.63H826.62V112.22c0-12.79-4.21-22.62-18.56-22.62-14.51.16-19.5,9.83-19.5,21.84v47.27H768.12Z"/><path class="cls-1" d="M869.33,88.82h-14.2V73.07h14.2V43.27h20.44v29.8h14.66V88.82H889.77v69.89H869.33Z"/><path class="cls-1" d="M927.86,122.68c.94,13.73,13.1,21.37,24.81,21.21,10,0,16.69-4.52,20.59-11.54h21.06A48.35,48.35,0,0,1,977,153.88a42.43,42.43,0,0,1-24.49,7.49,45.06,45.06,0,0,1-45.24-45.24c0-24.34,19-45.71,44.93-45.71,12.79,0,24,4.83,32,13.1,10.45,10.76,14.35,24.18,12.64,39.16Zm48.83-15.6c-.78-8.12-9.36-19.5-24.34-19.35-15.13,0-23.4,10.92-24.18,19.35Z"/><path class="cls-1" d="M1098.51,188.67h-20.44v-42c-3.58,5.77-12.16,14.67-29.48,14.67-25.12,0-42.28-20-42.28-44.15,0-28.08,18.88-46.8,43.53-46.8,17,0,25.58,9.2,29,15V73.07h19.66Zm-71.76-72.23A25.73,25.73,0,0,0,1053,142.18a25.83,25.83,0,0,0,25.89-26.05,25.46,25.46,0,0,0-7.17-18.88,26.92,26.92,0,0,0-18.88-7.8c-17,0-26,13.57-26,26.83Z"/><path class="cls-1" d="M65,31.37C-186.2-21.17,520.67,91.32,245.09,166.7S449.85,111.88,65,31.37Z"/><path class="cls-1" d="M233.71,64.18c176-218.11-288.64,412.24-211,110.86S-36,398.42,233.71,64.18Z"/><text class="cls-1" x="1108" y="158.71" font-family="Red Hat Display" font-size="172" font-weight="900">365</text></svg>
